<svg width="47" height="41" viewBox="0 0 47 41" fill="#0047FF" xmlns="http://www.w3.org/2000/svg">
<path fill-rule="evenodd" clip-rule="evenodd" d="M46.854 18.1374L46.854 15.6884L18.1044 15.6884L18.1044 0.99478L13.1758 0.99478L13.1758 15.6884L0.854007 15.6884L0.854007 18.1374C0.854006 30.7611 11.1515 40.9947 23.854 40.9947C36.5566 40.9947 46.854 30.7611 46.854 18.1374ZM13.1758 20.5864L5.9492 20.5864C6.10349 21.711 6.36253 22.8024 6.71624 23.8507L40.9918 23.8507C41.3455 22.8024 41.6045 21.711 41.7588 20.5864L18.1044 20.5864L18.1044 20.5867L13.1758 20.5867L13.1758 20.5864ZM9.27283 28.7487C12.5614 33.2041 17.8678 36.0967 23.854 36.0967C29.8402 36.0967 35.1466 33.2041 38.4352 28.7487L9.27283 28.7487ZM34.5325 0.994781L34.5325 9.1581L29.6039 9.1581L29.6039 0.994781L34.5325 0.994781Z"/>
</svg>
